<svg id="LOGO" xmlns="http://www.w3.org/2000/svg" viewBox="0 0 1250 703"><defs><style>.cls-1{fill:#181816;}.cls-2{fill:#fff;}</style></defs><title>logo-deep-sliver</title><path class="cls-1" d="M501.12,562.6a21.87,21.87,0,0,1-21.84-21.84V162.25a21.87,21.87,0,0,1,21.84-21.84H748.87a21.87,21.87,0,0,1,21.86,21.84V540.76a21.87,21.87,0,0,1-21.86,21.84Z"/><path class="cls-2" d="M748.87,143.68a18.58,18.58,0,0,1,18.58,18.57v378.5a18.58,18.58,0,0,1-18.58,18.58H501.12a18.56,18.56,0,0,1-18.56-18.58V162.25a18.56,18.56,0,0,1,18.56-18.57H748.87m0-6.55H501.12A25.15,25.15,0,0,0,476,162.25v378.5a25.14,25.14,0,0,0,25.12,25.12H748.87A25.15,25.15,0,0,0,774,540.75V162.25a25.15,25.15,0,0,0-25.13-25.12"/><path class="cls-2" d="M739.06,168.15H510.77a11.14,11.14,0,0,0-11.15,11.14V418.4a11.15,11.15,0,0,0,11.15,11.15H739.06A11.15,11.15,0,0,0,750.2,418.4V179.29a11.14,11.14,0,0,0-11.14-11.14M641.12,414.38a96.2,96.2,0,0,1-23.36-2.85C684,390.91,703,353.88,688.12,340c-.9-.8-1.77-1.5-2.65-2.2-13.48-9.89-35.53-7.06-63.9,25.09-1.27,1.48-2.54,2.9-3.86,4.5h0c-55.84,65.25-152-55.62-78.4-133.6-15.2,67.66,7.37,102.61,26.8,96.68,11.61-3.52,20.29-13.9,20.29-33.53,0-10.78-2.61-24.35-8.78-41.11-17.06-46.72,22.6-73.26,66.82-70,35.67,1.8,74.26,22.88,88,69-51-47-92.51-45-97.14-25.14a26.85,26.85,0,0,0-.74,6.3c0,16.47,15.61,33.41,59.63,41,77.89,14.5,35.72,137.86-53.14,137.5"/><path class="cls-2" d="M557.22,464.24a19.91,19.91,0,0,0-6.81-15.46,18.86,18.86,0,0,0-4.28-2.74c-5.85-3-11.47-3.31-17.69-3.36H499.5v43.47h27.25c7,0,9.58-.27,12.69-1a25,25,0,0,0,9.84-4.53c5.27-4,7.94-9.48,7.94-16.37m-29.06,13.18H513.21v-26h14.71c4,.07,5.67.19,7.59.79a11.3,11.3,0,0,1,3.48,1.57c3.94,2.71,4.53,7.54,4.53,10.16,0,6.83-2.74,11.09-8.16,12.65a26.42,26.42,0,0,1-7.2.84"/><polygon class="cls-2" points="621.07 477.05 583.78 477.05 583.78 468.58 619.43 468.58 619.43 459.48 583.78 459.48 583.78 451.53 619.59 451.53 619.59 442.68 570.29 442.68 570.29 486.15 621.07 486.15 621.07 477.05"/><polygon class="cls-2" points="685.49 477.05 648.04 477.05 648.04 468.73 683.86 468.73 683.86 459.48 648.04 459.48 648.04 451.53 684 451.53 684 442.68 634.71 442.68 634.71 486.15 685.49 486.15 685.49 477.05"/><path class="cls-2" d="M712.51,470.25h17.88c4.62-.06,9.85-.14,13.92-2.11a15,15,0,0,0,3.48-2.44,9.11,9.11,0,0,0,2.12-2.73,14.17,14.17,0,0,0-.85-14.44c-2.58-3.58-6.89-5.42-13.58-5.8-1.33-.05-2.68-.05-4-.05H699v43.47h13.56Zm22-9.28a22.58,22.58,0,0,1-6.34.59H712.51V451.24h18a17.62,17.62,0,0,1,3.24.29,5,5,0,0,1,4.09,5,4.32,4.32,0,0,1-3.28,4.45"/><path class="cls-2" d="M516.35,504.28a21.24,21.24,0,0,1,3.26-.22c3.35,0,7.81.56,10.1,3.21l.08.1a3.82,3.82,0,0,1,.47.62l.7,1.11,11.57-2.91-1.37-2.14a17.06,17.06,0,0,0-2.26-2.81,18.3,18.3,0,0,0-5.32-3.63c-2.77-1.33-6.6-2.68-13.92-2.68-6.14,0-11,1.23-14.59,3.67a11.76,11.76,0,0,0-5.38,10,11.48,11.48,0,0,0,6.94,10.53c3.29,1.55,7.17,2.15,14.23,3.23l1,.16c3.19.5,6,.93,7,1.76a2.32,2.32,0,0,1,.94,2,3.42,3.42,0,0,1-1.55,2.75c-1.8,1.23-5.14,1.67-7.78,1.67-3.56,0-9.93-.68-12.54-5.27l-.69-1.2-11.2,2.84,1.2,2.08a7.57,7.57,0,0,0,.49.79,20.69,20.69,0,0,0,4.47,5,21.81,21.81,0,0,0,2.95,1.94c2.73,1.47,6.87,3.16,14.64,3.16,1.45,0,2.92,0,4.42-.17a34.73,34.73,0,0,0,6.94-1.26c6.62-2.11,10.18-6.62,10.28-13.07,0-8.31-6.64-10.58-8.83-11.32a36.7,36.7,0,0,0-5.65-1.31c-.91-.17-2.22-.4-3.72-.65l-.24,0c-3.18-.53-7.16-1.19-9-1.76-2.17-.7-2.58-1.49-2.58-2.62,0-2.59,3-3.35,4.91-3.58"/><rect class="cls-2" x="549.82" y="496.19" width="12.09" height="42.6"/><polygon class="cls-2" points="584.06 496.19 571.98 496.19 571.98 538.79 606.67 538.79 606.67 529.42 584.06 529.42 584.06 496.19"/><path class="cls-2" d="M627.74,523.46l-.46,1.06c-.1-.27-.19-.55-.29-.88l0-.08-11.17-27.37H602.46l19.24,42.6h11.15L652,496.19h-13Z"/><polygon class="cls-2" points="669.32 521.83 696.15 521.83 696.15 512.69 669.32 512.69 669.32 505.4 697.08 505.4 697.08 496.19 657.24 496.19 657.24 538.79 698.23 538.79 698.23 529.65 669.32 529.65 669.32 521.83"/><path class="cls-2" d="M741.42,521.47c3.56-.81,6.93-2.32,8.75-6.42a13.6,13.6,0,0,0,1.18-5.76c0-6-3.37-10.71-8.8-12.31-1.76-.55-3.39-.73-7-.79h-29v42.6h12V522.41H728.8l10.84,16.38h14.41Zm-22.84-16.25h15.09c2.38.07,3.89.2,4.82,1.64a5.16,5.16,0,0,1,.65,2.56,3.56,3.56,0,0,1-2.88,3.76,16.92,16.92,0,0,1-2.29.14H718.58Z"/></svg>