<svg id="LOGO" xmlns="http://www.w3.org/2000/svg" viewBox="0 0 1250 703"><defs><style>.cls-1{fill-rule:evenodd;}</style></defs><title>logo-EA</title><path class="cls-1" d="M625,125.51c-124.61,0-226,101.38-226,226s101.37,226,226,226,226-101.38,226-226S749.61,125.51,625,125.51Zm0,422.71c-108.47,0-196.71-88.25-196.71-196.72S516.53,154.78,625,154.78,821.71,243,821.71,351.5,733.47,548.22,625,548.22Zm76.78-262.64h1.78V277h3.21v-1.53h-8.2V277h3.21v8.63Zm7.84-7.85h0l2.82,7.85h1.45l2.82-7.85h0v7.85h1.68V275.42H716l-2.72,7.95h0l-2.79-7.95h-2.5v10.16h1.69Zm-51.32-2.32H547.12l-16.87,27.11h111Zm22.71.26-68,108.22H537.67l17.39-27.13h45.18l17.26-27.12H513.05l-17.26,27.12h24.74L486.2,410.93H629.48l52.93-83.46,19.29,29.29H684.3l-16.47,27.13h51.52l17.89,27h32.87Z"/></svg>