<svg id="LOGO" xmlns="http://www.w3.org/2000/svg" viewBox="0 0 1250 703"><defs><style>.cls-1{fill:#a00;}.cls-2{isolation:isolate;}</style></defs><title>logo-square-enix</title><path id="path2179" d="M146,307.93a15.37,15.37,0,0,0-15.4,15.4v20.55a15.37,15.37,0,0,0,15.4,15.4H205v20.55H128v1.28a15.37,15.37,0,0,0,15.41,15.41h62.91a15.37,15.37,0,0,0,15.4-15.41V358a15.37,15.37,0,0,0-15.4-15.41H147.25V323.33h55.21V331h18v-7.71A15.37,15.37,0,0,0,205,307.93Z"/><path id="rect4238" d="M252.53,307.93a15.37,15.37,0,0,0-15.41,15.4v57.78a15.37,15.37,0,0,0,15.41,15.41h20.54v11.55h19.26V396.52h21.83a15.37,15.37,0,0,0,15.4-15.41V323.33a15.37,15.37,0,0,0-15.4-15.4Zm3.85,15.4H309v56.5H292.33v-9H273.07v9H256.38Z"/><path id="path2279" d="M345,307.93v73.18a15.37,15.37,0,0,0,15.41,15.41h55.2A15.37,15.37,0,0,0,431,381.11V307.93H411.73v71.9h-47.5v-71.9H345Z"/><path id="rect4262" d="M479.14,309.21l-44.3,87.31H454.1l9.79-19.26h49.75l9.79,19.26h19.26L498.4,309.21l-.65-1.28h-18Zm9.63,19,17.09,33.66H471.67Z"/><path id="rect4274" d="M551.68,307.93v88.59h19.26V363.14h12.19l32.1,33.38h25.68l-32.1-33.38h9.63a15.38,15.38,0,0,0,15.41-15.41v-24.4a15.37,15.37,0,0,0-15.41-15.4H551.68Zm19.26,15.4h38.51a5.13,5.13,0,0,1,5.14,5.14v14.12a5.13,5.13,0,0,1-5.14,5.14H570.94Z"/><path id="rect4294" d="M650.54,307.93v88.59H725V379.83H669.8v-56.5H725v-15.4Z"/><rect id="rect2226" class="cls-1" x="686.49" y="342.59" width="32.1" height="16.69"/><path id="path2233" d="M766.09,307.93v88.59h74.47V379.83H785.35v-56.5h55.21v-15.4Z"/><rect id="rect2235" class="cls-1" x="802.04" y="342.59" width="32.1" height="16.69"/><path id="rect2241" d="M856,307.93v88.59h18V333.85L920.16,389l1.28,1.53,5.06,6h12.92V307.93H920.16v59.62l-46.22-55.13-3.77-4.49Z"/><rect id="rect2265" x="954.82" y="307.93" width="20.54" height="88.59"/><path id="rect2267" d="M985.56,307.93l38.55,42.81-38.79,45.78h23.11L1036,364l29.29,32.54h23.11l-41.21-45.78,36.31-42.81h-23.11l-25.11,29.61-26.64-29.61Z"/><g id="text2290" class="cls-2"><g class="cls-2"><path d="M1095.62,395.23V380.64h-5.45v-1.95h13.12v1.95h-5.48v14.59Z"/><path d="M1105.46,395.23V378.69h3.3l3.91,11.71c.37,1.09.63,1.91.79,2.45.19-.6.49-1.48.88-2.65l4-11.51h3v16.54h-2.11V381.39l-4.81,13.84h-2l-4.79-14.08v14.08Z"/></g></g></svg>